# xmcd CD database file
#
# Track frame offsets:
#	150
#	30730
#	65480
#	86547
#	114950
#	137962
#	164925
#	190047
#	201072
#	227352
#	233980
#	275815
#
# Disc length: 3851 seconds
#
# Revision: 0
# Processed by: cddbd v1.5.1PL0 Copyright (c) Steve Scherf et al.
# Submitted via: CDex 1.51
#
DISCID=a90f090c
DTITLE=Gregory Tardy - The Hidden Light
DYEAR=1999
DGENRE=Jazz
TTITLE0=The Hidden Light
TTITLE1=The Living Hope
TTITLE2=Beyond The Prison Doors (Venus Flytrap)
TTITLE3=Mr. Hurt
TTITLE4=They Say It's Wonderful
TTITLE5=Educated Freedom
TTITLE6=The Night Traveler (Twilight Peregrination)
TTITLE7=I Only Have Eyes For You
TTITLE8=Second Wave (Pooh's Paradigm)
TTITLE9=Jonah's Tears Part 1
TTITLE10=Jonah's Tears Part 2
TTITLE11=Take My Hand Precious Lord
EXTD=YEAR: 1999
EXTT0=
EXTT1=
EXTT2=
EXTT3=
EXTT4=
EXTT5=
EXTT6=
EXTT7=
EXTT8=
EXTT9=
EXTT10=
EXTT11=
PLAYORDER=
